. 
 
http://www.torrenting.com          :     Once & For all ;)


               www . Torrenting . Com 

(((((((((((((= Enjoy No RAR releases =))))))))))))))))))))


...................................NFO:....................................

.[IMG]http://i.imgur.com/2mcr9.png[/IMG]

 
TITLE: 

Chronicle 2012 TS READNFO  XViD v2 - INSPiRAL

IMDB: 
 
http://www.imdb.com/title/tt1706593/


SOURCES:

VIDEO - NoZGT THANKS
AUDIO - MiSTERE THANKS
SUBS  - None Add

STATS:

Video
ID                                       : 0
Format                                   : MPEG-4 Visual
Format profile                           : Advanced Simple@L5
Format settings, BVOP                    : 2
Format settings, QPel                    : No
Format settings, GMC                     : No warppoints
Format settings, Matrix                  : Default (MPEG)
Muxing mode                              : Packed bitstream
Codec ID                                 : XVID
Codec ID/Hint                            : XviD
Duration                                 : 1h 15mn
Bit rate                                 : 1 749 Kbps
Width                                    : 720 pixels
Height                                   : 304 pixels
Display aspect ratio                     : 2.35:1
Frame rate                               : 25.000 fps
Color space                              : YUV
Chroma subsampling                       : 4:2:0
Bit depth                                : 8 bits
Scan type                                : Progressive
Compression mode                         : Lossy
Bits/(Pixel*Frame)                       : 0.320
Stream size                              : 948 MiB (93%)
Writing library                          : XviD 64

Audio
ID                                       : 1
Format                                   : MPEG Audio
Format version                           : Version 1
Format profile                           : Layer 3
Mode                                     : Joint stereo
Mode extension                           : MS Stereo
Codec ID                                 : 55
Codec ID/Hint                            : MP3
Duration                                 : 1h 15mn
Bit rate mode                            : Constant
Bit rate                                 : 128 Kbps
Channel(s)                               : 2 channels
Sampling rate                            : 44.1 KHz
Compression mode                         : Lossy
Delay relative to video                  : 309ms
Stream size                              : 69.4 MiB (7%)
Alignment                                : Split accross interleaves
Interleave, duration                     : 40 ms (1.00 video frame)
Interleave, preload duration             : 500 ms




NOTES:

Sources:
KK sources ...video is thanks to the new source from NoZGT nice work on getting it out the and ofc thansk for audio MiSTERE 
.

Workdone:

Well nice new source for us to have a round two at, video is not bad at all gave some tlc, turned out pretty nice...

audio done the usual stuff we like to do our audio, like on the 1st release that turned out well...

nfo is short and simple tonight as we got women to take care of.....

Enjoy folks :)

SCREENS:

[IMG]http://i.imgur.com/YoQFf.png[/IMG]
[IMG]http://i.imgur.com/D8v7t.png[/IMG]
[IMG]http://i.imgur.com/q1bDi.png[/IMG]
[IMG]http://i.imgur.com/pqCYo.png[/IMG]
[IMG]http://i.imgur.com/fyfF7.png[/IMG]

GREETZ: 

Past,Present and Future


[IMG]http://i.imgur.com/2mcr9.png[/IMG]